<?xml version="1.0" standalone="no"?>
<!DOCTYPE svg PUBLIC "-//W3C//DTD SVG 20010904//EN"
 "http://www.w3.org/TR/2001/REC-SVG-20010904/DTD/svg10.dtd">
<svg version="1.0" xmlns="http://www.w3.org/2000/svg"
 width="1024.000000pt" height="1024.000000pt" viewBox="0 0 1024.000000 1024.000000"
 preserveAspectRatio="xMidYMid meet">

<g transform="translate(0.000000,1024.000000) scale(0.100000,-0.100000)"
fill="#000000" stroke="none">
<path d="M7905 9040 c-17 -3 -38 -11 -47 -16 -9 -5 -161 -138 -339 -295 -550
-485 -899 -789 -906 -789 -3 0 -60 22 -127 49 -304 123 -585 193 -931 233
-164 18 -571 16 -729 -5 -224 -30 -424 -74 -648 -143 -15 -4 -13 -11 15 -50
25 -35 36 -44 52 -39 223 65 492 116 715 136 167 15 498 7 670 -16 285 -38
586 -120 843 -229 l38 -17 -643 -562 c-354 -309 -785 -685 -958 -836 -173
-150 -325 -285 -338 -298 -21 -23 -24 -24 -40 -9 -27 23 -87 46 -124 46 -66
-1 -116 -36 -292 -208 -206 -202 -285 -273 -526 -471 -355 -293 -403 -337
-616 -563 -242 -256 -257 -267 -261 -174 -3 68 -27 130 -61 156 -32 26 -96 26
-145 1 -43 -22 -40 -26 -52 84 -16 140 -77 253 -148 270 -105 27 -208 -81
-257 -268 l-18 -72 -1 70 c-1 98 17 321 35 440 52 332 180 695 381 1086 4 6
-70 49 -85 49 -14 0 -119 -210 -180 -360 -176 -437 -246 -759 -259 -1200 -9
-306 24 -613 96 -885 l29 -110 -83 -211 c-258 -651 -461 -1010 -709 -1254 -86
-85 -99 -107 -71 -130 27 -22 66 -1 149 83 157 158 276 331 415 606 135 266
308 671 424 993 67 185 84 216 156 289 65 64 133 101 226 123 29 7 28 6 -21
-46 -165 -171 -261 -362 -194 -383 28 -9 44 7 58 52 24 79 109 189 257 330 80
76 250 250 377 386 131 139 252 259 276 273 23 14 48 34 54 44 12 18 12 18 22
-2 16 -30 164 -104 179 -89 8 8 9 16 1 29 -13 21 -109 80 -148 90 -28 8 -27 9
70 87 155 124 442 366 522 440 67 62 74 66 90 52 37 -34 106 -57 172 -57 119
0 212 67 270 193 l27 59 13 -31 c8 -21 9 -35 2 -44 -5 -6 -17 -39 -27 -72 -40
-144 -126 -274 -287 -435 -52 -52 -136 -150 -186 -217 -93 -124 -153 -193
-293 -338 -52 -54 -103 -123 -159 -214 -161 -265 -262 -373 -462 -495 -42 -25
-32 -76 14 -76 25 0 23 -30 -8 -153 -25 -101 -80 -237 -95 -237 -4 0 -27 25
-51 55 -34 45 -48 55 -68 53 -46 -5 -37 -41 33 -136 36 -48 86 -120 110 -161
45 -72 141 -295 135 -313 -2 -5 -32 15 -68 45 -58 47 -97 96 -154 190 -18 30
-53 36 -63 10 -9 -23 47 -127 104 -192 26 -30 73 -73 104 -96 l57 -42 -127 -6
c-152 -7 -163 -11 -159 -46 3 -26 4 -26 98 -29 127 -4 300 14 410 43 192 52
430 202 653 413 137 129 228 203 345 281 119 80 147 91 224 91 l63 0 -50 -29
c-65 -37 -149 -126 -165 -175 -24 -75 29 -191 128 -277 l50 -42 -168 -181
c-181 -194 -213 -224 -390 -360 -70 -54 -200 -174 -330 -306 -366 -368 -567
-494 -1030 -647 -107 -35 -229 -82 -270 -104 -138 -75 -346 -262 -455 -410
-46 -63 -54 -86 -33 -107 25 -25 49 -9 132 92 125 152 286 290 409 352 37 19
146 61 240 93 299 102 447 170 637 295 l109 72 93 -59 c51 -32 151 -88 222
-124 349 -176 680 -274 1096 -325 135 -17 524 -16 660 0 592 73 1154 311 1625
688 143 115 397 370 505 508 397 505 627 1045 717 1686 22 159 25 678 5 840
-38 300 -126 634 -237 902 -47 111 -162 333 -229 442 -256 414 -585 759 -971
1018 -66 44 -121 84 -123 87 -1 4 71 70 160 147 90 76 312 267 493 423 565
487 539 461 537 536 -1 102 -92 178 -187 155z m-974 -1416 c189 -127 315 -230
495 -409 191 -190 289 -308 432 -524 237 -358 399 -771 473 -1212 19 -116 19
-125 3 -134 -59 -35 -135 -102 -169 -150 l-40 -56 -3 41 c-2 23 6 69 17 103
56 172 54 422 -4 477 -19 18 -26 19 -49 9 -14 -7 -36 -28 -48 -47 l-21 -34
-28 29 c-15 15 -199 208 -409 428 -209 220 -393 406 -408 414 -30 16 -26 16
-725 32 -465 10 -489 10 -517 -8 -16 -10 -164 -169 -328 -353 -164 -184 -400
-450 -525 -590 -125 -140 -227 -263 -227 -272 0 -32 40 -48 122 -48 l77 0 3
-265 c3 -246 -1 -301 -16 -242 -9 36 -63 105 -99 127 -42 26 -86 25 -127 -2
-52 -36 -73 -88 -78 -191 l-5 -88 -31 29 c-67 64 -120 70 -171 19 -49 -49 -55
-137 -19 -266 6 -21 5 -23 -12 -16 -10 4 -36 10 -56 13 -31 3 -41 -1 -62 -23
-31 -33 -40 -78 -33 -158 5 -60 5 -61 -11 -37 -35 52 -181 242 -280 364 -91
112 -157 173 -205 189 -6 2 42 62 107 133 65 71 149 172 188 224 39 52 123
149 187 215 181 187 247 281 302 437 16 45 34 87 41 94 7 6 396 339 863 740
468 400 942 808 1055 906 112 98 209 178 215 178 6 0 63 -34 126 -76z m-462
-1683 l441 -484 0 -558 0 -558 -49 6 c-44 5 -52 3 -76 -21 -26 -26 -27 -31
-23 -104 6 -83 34 -174 71 -231 13 -20 32 -48 41 -63 l18 -28 -31 6 c-44 9
-93 -3 -136 -32 -27 -18 -48 -24 -74 -22 l-36 3 0 60 c0 70 -7 85 -40 85 -26
0 -117 -85 -141 -132 -8 -16 -16 -28 -18 -28 -1 0 -3 33 -3 73 0 79 -15 124
-58 175 -65 78 -135 8 -135 -135 0 -79 -3 -83 -54 -63 l-26 10 0 539 0 539
-226 7 c-221 7 -319 4 -335 -12 -5 -5 -11 -250 -15 -546 l-7 -537 -79 0 -80 0
30 38 c59 74 78 155 46 200 -22 32 -78 29 -148 -7 -31 -17 -56 -27 -56 -25 0
3 8 18 18 32 52 75 78 221 48 267 -10 15 -26 25 -39 25 -35 0 -113 -54 -143
-100 -15 -22 -27 -39 -28 -38 -1 2 0 283 2 625 l2 622 218 238 c119 131 311
343 426 471 l210 233 22 -23 c12 -13 220 -241 463 -507z m-1978 143 c23 -21
24 -35 4 -100 -29 -100 -125 -174 -222 -174 -47 0 -124 28 -137 49 -7 10 180
198 233 234 31 22 93 17 122 -9z m3590 -584 c-7 -78 -20 -148 -39 -202 l-27
-83 -3 113 c-3 122 10 196 50 281 28 62 32 39 19 -109z m-260 -189 c58 -60
103 -173 123 -311 l7 -45 -39 43 c-75 84 -146 225 -158 316 -9 61 6 60 67 -3z
m453 -197 c-20 -60 -47 -131 -61 -159 -31 -61 -111 -175 -123 -175 -12 0 33
163 64 233 13 31 39 78 57 104 34 50 90 115 96 109 2 -1 -13 -52 -33 -112z
m96 -218 l0 -184 -27 -7 c-65 -16 -162 -96 -213 -176 -18 -27 -34 -49 -37 -49
-3 0 -4 38 -1 84 l4 84 70 75 c82 87 134 173 172 279 15 43 28 78 30 78 1 0 2
-83 2 -184z m-639 -75 c57 -37 89 -72 134 -146 36 -60 77 -175 89 -250 l6 -40
-51 55 c-112 118 -211 275 -237 373 -13 46 -3 48 59 8z m-3888 -153 c52 -30
301 -332 440 -536 42 -61 95 -194 102 -255 l5 -42 -86 -60 c-48 -33 -124 -92
-170 -132 l-83 -73 -5 33 c-19 130 -27 209 -23 220 3 7 33 24 67 38 74 29 113
61 108 91 -6 39 -32 45 -75 17 -51 -34 -117 -59 -154 -59 -22 0 -43 13 -81 48
-57 52 -148 168 -148 187 0 7 14 42 31 78 38 82 37 130 -2 135 -24 3 -29 -3
-53 -65 -40 -100 -63 -129 -141 -178 -85 -53 -229 -123 -271 -131 l-30 -6 9
71 10 70 67 50 c113 84 200 188 322 384 97 157 91 153 161 115z m4472 -144
c-15 -43 -43 -106 -63 -139 -34 -57 -159 -192 -168 -182 -7 7 42 131 83 210
36 69 156 208 168 195 4 -3 -6 -41 -20 -84z m-21 -326 c-13 -57 -23 -107 -24
-113 0 -5 -25 -23 -54 -38 -30 -16 -78 -53 -106 -83 -28 -30 -52 -54 -53 -54
-2 0 0 33 4 73 4 39 8 79 8 88 1 9 28 33 60 53 33 20 88 68 123 106 35 38 63
69 64 70 1 0 -9 -46 -22 -102z m-665 78 c61 -32 138 -137 186 -254 22 -55 59
-222 50 -230 -5 -5 -71 69 -118 132 -72 96 -141 238 -162 334 -8 36 1 40 44
18z m-694 -108 c36 -49 117 -215 140 -287 l7 -23 -31 23 c-88 65 -175 217
-196 344 l-7 40 23 -20 c12 -11 41 -45 64 -77z m-3185 -187 c39 -49 97 -109
129 -134 65 -50 61 -40 82 -231 l13 -116 -30 -31 c-16 -17 -90 -72 -164 -121
-133 -90 -135 -91 -138 -64 -5 41 44 136 101 194 43 43 50 55 41 70 -18 28
-48 25 -96 -13 -26 -19 -49 -35 -52 -35 -7 0 -156 229 -156 241 0 5 11 26 24
47 35 54 49 107 44 163 l-5 49 61 35 c34 19 64 35 68 35 4 0 39 -40 78 -89z
m3560 4 c0 -86 -38 -217 -95 -325 l-34 -65 -1 66 c0 81 24 222 49 289 18 48
59 108 74 109 4 1 7 -33 7 -74z m-3844 -66 c-14 -89 -53 -136 -193 -233 -45
-31 -85 -61 -88 -66 -8 -14 -45 -13 -45 1 0 6 11 29 24 52 14 23 39 84 56 135
l33 92 36 0 c20 0 65 14 101 29 36 16 69 29 74 30 5 1 6 -17 2 -40z m4729 -71
c-49 -149 -76 -192 -156 -249 l-31 -22 7 24 c24 81 188 350 203 334 3 -2 -8
-41 -23 -87z m-1314 -60 c87 -46 169 -138 225 -254 26 -52 44 -97 41 -101 -11
-10 -132 84 -202 158 -57 61 -145 195 -145 223 0 13 24 5 81 -26z m-2015 6
c72 -34 99 -107 65 -176 -25 -53 -186 -238 -207 -238 -24 0 -98 76 -129 131
-52 96 -33 155 78 238 83 61 133 73 193 45z m1137 -12 c9 -10 41 -56 71 -102
l55 -83 -43 -28 c-24 -15 -55 -42 -69 -61 -60 -79 -111 -236 -125 -384 l-7
-79 -42 87 c-55 114 -113 200 -185 271 -65 63 -97 72 -122 35 -19 -29 -8 -175
24 -321 28 -128 61 -320 56 -325 -3 -2 -10 7 -17 20 -20 38 -149 166 -219 218
-78 58 -203 120 -242 120 -24 0 -58 -22 -58 -38 1 -25 69 -211 139 -374 22
-53 41 -99 41 -100 0 -2 -38 15 -85 38 -133 65 -299 96 -333 62 -29 -29 -12
-58 114 -191 105 -112 259 -305 250 -314 -1 -2 -25 8 -53 22 -148 71 -402 118
-464 85 -54 -30 -6 -93 267 -355 104 -99 212 -202 239 -229 l50 -48 -160 6
c-384 13 -781 115 -1147 295 -94 45 -286 156 -305 175 -7 6 423 431 482 478
272 212 309 245 511 460 292 310 362 392 390 451 27 59 31 130 10 190 l-14 37
488 0 c456 0 488 -1 503 -18z m1517 -112 c0 -40 -33 -136 -77 -224 -38 -76
-154 -255 -165 -256 -22 0 37 234 83 327 38 76 124 183 148 183 6 0 11 -14 11
-30z m-1383 -368 c15 -66 18 -122 18 -392 -1 -338 -31 -1069 -46 -1084 -13
-15 -17 -6 -29 69 -42 261 -60 692 -41 975 20 296 52 527 71 515 5 -3 17 -40
27 -83z m824 -59 c53 -55 105 -135 137 -208 23 -56 64 -197 58 -202 -2 -2 -41
36 -86 84 -121 127 -223 290 -245 391 l-7 33 49 -25 c26 -13 69 -46 94 -73z
m689 10 c-30 -81 -109 -235 -171 -335 -62 -99 -180 -260 -187 -253 -6 6 27
141 50 200 32 81 95 202 147 279 52 76 173 196 179 178 2 -7 -6 -38 -18 -69z
m-1140 -346 c-33 -217 -64 -364 -146 -698 -103 -414 -112 -425 -94 -122 18
321 56 557 121 754 35 106 58 154 103 219 31 45 31 45 34 17 2 -15 -6 -92 -18
-170z m350 -116 c0 -46 -116 -345 -239 -617 -77 -169 -84 -182 -122 -204 l-41
-23 7 44 c16 97 78 318 115 412 59 146 124 251 219 350 44 46 61 56 61 38z
m-1256 -414 c73 -73 127 -150 185 -266 48 -94 125 -316 116 -331 -18 -30 -33
-10 -218 295 -83 136 -171 310 -182 358 -5 26 -4 27 15 17 12 -6 49 -39 84
-73z"/>
<path d="M5821 5856 c-8 -9 -11 -81 -9 -237 l3 -224 169 -3 c129 -2 171 1 178
10 4 7 8 111 8 230 0 205 -1 218 -19 228 -31 16 -316 13 -330 -4z m249 -231
l0 -146 -82 3 c-46 2 -82 6 -80 11 1 4 2 68 2 142 l0 135 80 0 80 0 0 -145z"/>
<path d="M6317 4953 c-13 -12 -8 -488 5 -501 17 -17 299 -17 316 0 9 9 12 78
12 248 0 170 -3 239 -12 248 -13 13 -309 18 -321 5z m231 -249 l2 -161 -31 -7
c-17 -3 -49 -6 -70 -6 l-39 0 0 170 0 171 68 -3 67 -3 3 -161z"/>
<path d="M3320 8321 c-6 -13 -10 -179 -10 -470 0 -438 1 -452 20 -471 26 -26
45 -25 64 2 14 20 16 81 16 471 0 290 -4 455 -10 468 -7 12 -21 19 -40 19 -19
0 -33 -7 -40 -19z"/>
<path d="M2545 7934 c-10 -10 -13 -24 -9 -38 4 -11 103 -121 221 -243 118
-123 244 -254 279 -292 36 -39 74 -73 85 -76 24 -8 59 19 59 46 0 24 -577 619
-600 619 -10 0 -26 -7 -35 -16z"/>
<path d="M3963 7828 c-59 -67 -181 -205 -270 -306 -90 -101 -163 -188 -163
-193 0 -25 22 -49 45 -49 18 0 55 35 157 148 188 208 391 441 401 458 12 20
-18 64 -43 64 -12 0 -59 -45 -127 -122z"/>
<path d="M2246 7137 c-12 -9 -17 -23 -14 -42 2 -23 10 -31 36 -37 18 -5 199
-8 401 -6 386 3 401 5 401 48 0 9 -8 24 -18 33 -17 15 -59 17 -403 17 -300 0
-389 -3 -403 -13z"/>
<path d="M3642 7138 c-7 -7 -12 -21 -12 -33 0 -45 4 -45 410 -45 287 0 389 3
398 12 18 18 14 56 -7 68 -30 15 -773 14 -789 -2z"/>
<path d="M3536 6918 c-31 -18 -19 -58 37 -117 358 -383 445 -472 465 -477 29
-8 52 12 52 44 0 19 -29 55 -113 141 -62 64 -175 182 -250 262 -76 81 -146
149 -156 152 -10 2 -26 0 -35 -5z"/>
<path d="M2927 6663 c-315 -333 -311 -327 -303 -357 3 -14 16 -28 28 -32 19
-6 42 13 158 133 310 320 420 442 420 465 0 28 -17 48 -41 48 -9 0 -127 -116
-262 -257z"/>
<path d="M3329 6793 c-12 -13 -13 -88 -11 -417 2 -221 6 -409 8 -418 6 -21 53
-25 72 -6 17 17 17 829 0 846 -17 17 -53 15 -69 -5z"/>
<path d="M3277 5076 c-7 -18 5 -28 79 -66 68 -34 80 -36 88 -14 9 23 -7 39
-67 69 -57 28 -92 32 -100 11z"/>
<path d="M4267 3323 c-15 -15 -4 -34 68 -117 47 -53 83 -86 95 -86 38 0 20 39
-56 125 -71 80 -91 95 -107 78z"/>
<path d="M4097 3216 c-10 -24 33 -94 105 -171 66 -70 98 -89 113 -65 4 6 -19
38 -49 72 -31 34 -73 88 -94 120 -36 56 -64 73 -75 44z"/>
</g>
</svg>
